<svg width="184" height="176" viewBox="0 0 184 176" fill="none" xmlns="http://www.w3.org/2000/svg">
<path d="M138.928 161.293H45.0721C44.63 161.293 44.1928 161.201 43.7886 161.022C43.3844 160.843 43.0221 160.581 42.7252 160.254C42.4283 159.926 42.2033 159.54 42.0647 159.12C41.926 158.7 41.8769 158.256 41.9204 157.816L52.0004 58.9158C52.0354 58.5611 52.2011 58.2321 52.4652 57.9928C52.7294 57.7535 53.0731 57.621 53.4295 57.6211H130.553C130.909 57.621 131.253 57.7535 131.517 57.9928C131.781 58.2321 131.947 58.5611 131.982 58.9158L142.062 157.816C142.105 158.255 142.056 158.697 141.919 159.116C141.781 159.534 141.558 159.92 141.263 160.247C140.968 160.574 140.608 160.836 140.206 161.016C139.804 161.196 139.369 161.291 138.928 161.293Z" stroke="white" stroke-opacity="0.7" stroke-width="5" stroke-miterlimit="10" stroke-linecap="round"/>
<path d="M70.1711 78.8743V36.5383C70.1711 24.5319 79.9935 14.7095 91.9999 14.7095C104.006 14.7095 113.829 24.5319 113.829 36.5383V78.8743" stroke="white" stroke-opacity="0.7" stroke-width="5" stroke-miterlimit="10" stroke-linecap="round"/>
<path d="M70.1711 83.0317C72.4672 83.0317 74.3286 81.1703 74.3286 78.8742C74.3286 76.5781 72.4672 74.7168 70.1711 74.7168C67.875 74.7168 66.0137 76.5781 66.0137 78.8742C66.0137 81.1703 67.875 83.0317 70.1711 83.0317Z" fill="white" fill-opacity="0.7"/>
<path d="M113.829 83.0317C116.125 83.0317 117.986 81.1703 117.986 78.8742C117.986 76.5781 116.125 74.7168 113.829 74.7168C111.533 74.7168 109.671 76.5781 109.671 78.8742C109.671 81.1703 111.533 83.0317 113.829 83.0317Z" fill="white" fill-opacity="0.7"/>
<path d="M57.4906 99.7935L53.4407 135.4" stroke="white" stroke-opacity="0.7" stroke-width="5" stroke-miterlimit="10" stroke-linecap="round"/>
<path d="M118.159 155.576H97.6963" stroke="white" stroke-opacity="0.7" stroke-width="5" stroke-miterlimit="10" stroke-linecap="round"/>
<path d="M79.0505 155.576H52.1033" stroke="white" stroke-opacity="0.7" stroke-width="5" stroke-miterlimit="10" stroke-linecap="round"/>
</svg>
