<svg width="184" height="176" viewBox="0 0 184 176" fill="none" xmlns="http://www.w3.org/2000/svg">
<path d="M56.5288 30.9956C77.0691 18.2133 103.437 17.3296 125.007 29.5433" stroke="white" stroke-opacity="0.7" stroke-width="10" stroke-miterlimit="10" stroke-linecap="round"/>
<path d="M138.733 39.8145C163.295 63.5745 166.226 102.57 144.485 129.836C121.376 158.829 79.1457 163.602 50.1574 140.485C21.1691 117.367 16.3981 75.1455 39.5154 46.1572C40.816 44.5257 42.1742 42.9731 43.5901 41.4995" stroke="white" stroke-opacity="0.7" stroke-width="10" stroke-miterlimit="10" stroke-linecap="round"/>
<path d="M130.794 51.2104L64.7791 134.016" stroke="white" stroke-opacity="0.7" stroke-width="10" stroke-miterlimit="10" stroke-linecap="round"/>
<path d="M119.221 41.9839L53.2061 124.79" stroke="white" stroke-opacity="0.7" stroke-width="10" stroke-miterlimit="10" stroke-linecap="round"/>
<path d="M53.206 124.79C35.1048 105.751 33.36 75.7986 50.1984 54.6754C67.0368 33.5522 96.6267 28.5793 119.221 41.9837" stroke="white" stroke-opacity="0.7" stroke-width="10" stroke-miterlimit="10" stroke-linecap="round"/>
<path d="M64.7791 134.016C81.6566 144.03 102.44 143.787 118.893 134.222" stroke="white" stroke-opacity="0.7" stroke-width="10" stroke-miterlimit="10" stroke-linecap="round"/>
<path d="M130.794 51.2104C148.864 70.216 150.634 100.1 133.884 121.215" stroke="white" stroke-opacity="0.7" stroke-width="10" stroke-miterlimit="10" stroke-linecap="round"/>
</svg>
