<svg width="164" height="164" viewBox="0 0 164 164" fill="none" xmlns="http://www.w3.org/2000/svg">
<path d="M103.232 19.3543C120.302 29.2283 131.786 47.6839 131.786 68.8215M103.232 19.3543V40.2679M103.232 19.3543H124.146M124.146 97.3751C114.272 114.444 95.8163 125.929 74.6787 125.929M124.146 97.3751H103.232M124.146 97.3751V118.289M46.1251 118.289C29.0557 108.415 17.5715 89.9591 17.5715 68.8215M46.1251 118.289V97.3751M46.1251 118.289H25.2114M25.2114 40.2679C35.0854 23.1986 53.541 11.7144 74.6787 11.7144M25.2114 40.2679H46.1251M25.2114 40.2679V19.3543" stroke="white" stroke-opacity="0.7" stroke-width="4" stroke-linecap="round" stroke-linejoin="round"/>
<path d="M124.464 97.375C114.527 114.444 95.9521 125.929 74.6785 125.929M124.464 97.375H103.416M124.464 97.375V118.289" stroke="white" stroke-opacity="0.7" stroke-width="4" stroke-linecap="round" stroke-linejoin="round"/>
<path d="M46.1251 118.607C29.0557 108.669 17.5715 90.095 17.5715 68.8213M46.1251 118.607V97.5586M46.1251 118.607H25.2114" stroke="white" stroke-opacity="0.7" stroke-width="4" stroke-linecap="round" stroke-linejoin="round"/>
<path d="M24.8928 40.2679C34.8306 23.1986 53.4048 11.7144 74.6785 11.7144M24.8928 40.2679H45.9411M24.8928 40.2679V19.3543" stroke="white" stroke-opacity="0.7" stroke-width="4" stroke-linecap="round" stroke-linejoin="round"/>
<path d="M103.232 19.0356C120.302 28.9734 131.786 47.5476 131.786 68.8214M103.232 19.0356V40.0839M103.232 19.0356H124.146" stroke="white" stroke-opacity="0.7" stroke-width="4" stroke-linecap="round" stroke-linejoin="round"/>
</svg>
